<svg aria-hidden="true" style="position: absolute; width: 0; height: 0; overflow: hidden;" version="1.1" xmlns="http://www.w3.org/2000/svg" xmlns:xlink="http://www.w3.org/1999/xlink">
<defs>
<symbol id="icon-user-arrows" viewBox="0 0 32 32">
<path fill="#0388a9" style="fill: var(--color1, #0388a9)" d="M8 22c-0.923 0-1.825-0.274-2.593-0.787s-1.366-1.242-1.719-2.094c-0.353-0.853-0.446-1.791-0.266-2.696s0.625-1.737 1.277-2.389c0.653-0.653 1.484-1.097 2.389-1.277s1.844-0.088 2.696 0.265c0.853 0.353 1.582 0.951 2.094 1.719s0.786 1.67 0.786 2.593c-0.001 1.237-0.494 2.423-1.368 3.298s-2.061 1.367-3.298 1.368z"></path>
<path fill="#c3e8f1" style="fill: var(--color2, #c3e8f1)" d="M11.52 20.362c-0.432 0.513-0.971 0.925-1.579 1.208s-1.271 0.43-1.941 0.43c-0.671 0-1.333-0.147-1.941-0.43s-1.147-0.695-1.579-1.208c-0.96 0.595-1.753 1.425-2.303 2.411s-0.841 2.097-0.843 3.226c0 0.354 0.14 0.693 0.391 0.943s0.589 0.391 0.943 0.391h10.667c0.354 0 0.693-0.141 0.943-0.391s0.39-0.589 0.39-0.943c-0.002-1.13-0.293-2.24-0.843-3.226s-1.343-1.816-2.303-2.411zM24 22c-0.923 0-1.825-0.274-2.593-0.787s-1.366-1.242-1.719-2.094c-0.353-0.853-0.446-1.791-0.266-2.696s0.625-1.737 1.277-2.389c0.653-0.653 1.484-1.097 2.389-1.277s1.844-0.088 2.696 0.265c0.853 0.353 1.582 0.951 2.094 1.719s0.786 1.67 0.786 2.593c-0.001 1.237-0.494 2.423-1.368 3.298s-2.061 1.367-3.298 1.368z"></path>
<path fill="#027794" style="fill: var(--color3, #027794)" d="M27.52 20.362c-0.432 0.513-0.971 0.925-1.579 1.208s-1.271 0.43-1.941 0.43c-0.671 0-1.333-0.147-1.941-0.43s-1.147-0.695-1.579-1.208c-0.96 0.595-1.753 1.425-2.303 2.411s-0.841 2.097-0.843 3.226c0 0.354 0.14 0.693 0.39 0.943s0.589 0.391 0.943 0.391h10.667c0.354 0 0.693-0.141 0.943-0.391s0.39-0.589 0.39-0.943c-0.003-1.13-0.293-2.24-0.843-3.226s-1.343-1.816-2.303-2.411z"></path>
<path fill="#027794" style="fill: var(--color3, #027794)" d="M22.943 7.724l-2.667-2.667c-0.251-0.246-0.589-0.384-0.94-0.382s-0.688 0.142-0.937 0.39c-0.248 0.249-0.389 0.585-0.39 0.937s0.136 0.689 0.382 0.94l0.391 0.391h-5.563l0.391-0.391c0.247-0.251 0.386-0.589 0.385-0.941s-0.142-0.689-0.39-0.939c-0.249-0.249-0.586-0.389-0.939-0.39s-0.69 0.137-0.941 0.385l-2.667 2.667c-0.124 0.124-0.222 0.271-0.289 0.432s-0.102 0.335-0.102 0.51c0 0.175 0.034 0.349 0.102 0.51s0.165 0.309 0.289 0.433l2.667 2.667c0.251 0.247 0.589 0.386 0.941 0.385s0.689-0.142 0.938-0.39 0.389-0.586 0.39-0.939c0.001-0.352-0.137-0.69-0.385-0.941l-0.391-0.391h5.562l-0.391 0.391c-0.25 0.25-0.39 0.589-0.39 0.943s0.14 0.693 0.39 0.943c0.25 0.25 0.589 0.39 0.943 0.39s0.693-0.14 0.943-0.39l2.667-2.667c0.124-0.124 0.222-0.271 0.289-0.433s0.102-0.335 0.102-0.51c0-0.175-0.035-0.348-0.102-0.51s-0.165-0.309-0.289-0.432z"></path>
</symbol>
<symbol id="icon-bag" viewBox="0 0 32 32">
<path fill="#c3e8f1" style="fill: var(--color2, #c3e8f1)" d="M25.333 8h-18.667c-2.209 0-4 1.791-4 4v3.628l9.117 3.039h8.434l9.117-3.039v-3.628c0-2.209-1.791-4-4-4z"></path>
<path fill="#027794" style="fill: var(--color3, #027794)" d="M13.333 8v-1.333h5.333v1.333h2.667v-1.333c-0.002-1.472-1.195-2.665-2.667-2.667h-5.333c-1.472 0.002-2.665 1.195-2.667 2.667v1.333h2.667zM11.783 18.667l-9.117-3.039v8.372c0.002 2.208 1.792 3.998 4 4h18.667c2.208-0.002 3.998-1.792 4-4v-8.372l-9.117 3.039h-8.434z"></path>
</symbol>
<symbol id="icon-circle-Layer" viewBox="0 0 32 32">
<path fill="#c3e8f1" style="fill: var(--color2, #c3e8f1)" d="M20 2.667c-4.503 0.002-8.362 3.22-9.174 7.649 3.876-2.121 8.737-0.698 10.858 3.178 1.309 2.393 1.309 5.288 0 7.681 5.068-0.929 8.424-5.79 7.496-10.858-0.812-4.432-4.675-7.65-9.181-7.649z"></path>
<path fill="#027794" style="fill: var(--color3, #027794)" d="M9.333 29.333c3.682 0 6.667-2.985 6.667-6.667s-2.985-6.667-6.667-6.667c-3.682 0-6.667 2.985-6.667 6.667s2.985 6.667 6.667 6.667z"></path>
<path fill="#52a0b4" style="fill: var(--color4, #52a0b4)" d="M14.667 9.333c-4.111 0-7.553 3.117-7.96 7.208 3.381-1.453 7.3 0.111 8.752 3.492 0.721 1.679 0.721 3.581 0 5.261 4.396-0.437 7.606-4.355 7.169-8.752-0.407-4.092-3.849-7.208-7.961-7.208z"></path>
</symbol>
<symbol id="icon-rocket" viewBox="0 0 32 32">
<path fill="#027794" style="fill: var(--color3, #027794)" d="M23.649 19.496l-3.235 2.974c-1.663 1.45-3.617 2.527-5.731 3.16l0.858 4.004c0.044 0.204 0.135 0.396 0.267 0.558s0.299 0.292 0.49 0.378c0.191 0.086 0.399 0.126 0.608 0.116s0.413-0.068 0.595-0.17l5.207-2.937c0.733-0.445 1.305-1.112 1.635-1.904s0.399-1.668 0.198-2.501l-0.892-3.679zM9.688 11.701l2.785-3.306-3.473-0.838c-0.844-0.294-1.767-0.273-2.597 0.059s-1.512 0.954-1.919 1.751l-2.934 5.2c-0.103 0.182-0.161 0.386-0.171 0.595s0.030 0.417 0.116 0.608c0.086 0.191 0.215 0.358 0.378 0.49s0.354 0.223 0.559 0.266l4.097 0.878c0.679-2.085 1.751-4.021 3.158-5.702zM22.312 11.755c0.396 0 0.782-0.117 1.111-0.337s0.585-0.532 0.737-0.898c0.151-0.365 0.191-0.768 0.114-1.156s-0.268-0.744-0.547-1.024c-0.28-0.28-0.636-0.47-1.024-0.547s-0.79-0.038-1.156 0.114c-0.366 0.151-0.678 0.408-0.898 0.737s-0.337 0.716-0.337 1.111c0 0.53 0.211 1.039 0.586 1.414s0.884 0.586 1.414 0.586z"></path>
<path fill="#c3e8f1" style="fill: var(--color2, #c3e8f1)" d="M30.135 2.749c-0.060-0.228-0.18-0.437-0.347-0.604s-0.375-0.287-0.604-0.347c-2.735-0.711-5.616-0.635-8.309 0.22s-5.091 2.453-6.916 4.611l-4.271 5.072c-2.134 2.545-3.488 5.652-3.898 8.948-0.026 0.203-0.006 0.408 0.060 0.602s0.175 0.369 0.32 0.513l4.133 4.133c0.124 0.124 0.271 0.222 0.432 0.289s0.335 0.102 0.51 0.102c0.039 0 0.077-0.002 0.116-0.005 3.346-0.276 6.518-1.612 9.053-3.813l4.884-4.491c2.165-1.82 3.77-4.218 4.626-6.914s0.929-5.58 0.211-8.316zM22.312 11.755c-0.396 0-0.782-0.117-1.111-0.337s-0.585-0.532-0.737-0.898c-0.151-0.365-0.191-0.768-0.114-1.156s0.268-0.744 0.547-1.024c0.28-0.28 0.636-0.47 1.024-0.547s0.79-0.038 1.156 0.114c0.366 0.151 0.678 0.408 0.898 0.737s0.337 0.716 0.337 1.111c-0 0.53-0.211 1.039-0.586 1.414s-0.884 0.586-1.414 0.586z"></path>
</symbol>
<symbol id="icon-microsoft" viewBox="0 0 150 32">
<path fill="#737373" style="fill: var(--color1, #737373)" d="M53.001 18.431l-0.895 2.53h-0.075c-0.149-0.571-0.423-1.439-0.87-2.481l-4.798-12.031h-4.698v19.175h3.107v-11.833c0-0.744 0-1.588-0.025-2.629-0.025-0.521-0.075-0.918-0.099-1.216h0.075c0.149 0.744 0.323 1.29 0.447 1.637l5.767 13.991h2.188l5.718-14.115c0.124-0.322 0.249-0.967 0.373-1.513h0.075c-0.075 1.414-0.124 2.679-0.149 3.448v12.155h3.306v-19.15h-4.525l-4.922 12.031zM65.58 11.808h3.232v13.743h-3.232v-13.743zM67.221 6.003c-0.547 0-0.994 0.198-1.367 0.546s-0.572 0.794-0.572 1.34c0 0.521 0.199 0.967 0.572 1.315s0.82 0.521 1.367 0.521c0.547 0 1.019-0.198 1.367-0.521 0.373-0.347 0.572-0.794 0.572-1.315s-0.199-0.967-0.572-1.34c-0.323-0.347-0.795-0.546-1.367-0.546zM80.273 11.684c-0.597-0.124-1.218-0.198-1.815-0.198-1.467 0-2.809 0.322-3.928 0.967s-2.014 1.538-2.585 2.654c-0.597 1.141-0.895 2.456-0.895 3.969 0 1.315 0.298 2.481 0.87 3.547 0.572 1.042 1.367 1.885 2.436 2.456 1.019 0.571 2.213 0.868 3.555 0.868 1.541 0 2.859-0.322 3.903-0.918l0.025-0.025v-2.977l-0.124 0.099c-0.472 0.347-1.019 0.645-1.566 0.819-0.572 0.199-1.094 0.298-1.541 0.298-1.293 0-2.312-0.372-3.033-1.191-0.746-0.794-1.119-1.885-1.119-3.25 0-1.414 0.373-2.53 1.144-3.349s1.79-1.24 3.033-1.24c1.044 0 2.113 0.347 3.083 1.042l0.124 0.099v-3.15l-0.025-0.025c-0.423-0.174-0.895-0.372-1.541-0.496zM90.937 11.585c-0.795 0-1.541 0.248-2.188 0.769-0.547 0.447-0.92 1.091-1.243 1.86h-0.025v-2.406h-3.232v13.743h3.232v-7.020c0-1.191 0.249-2.183 0.796-2.902 0.547-0.744 1.243-1.116 2.088-1.116 0.298 0 0.597 0.074 0.969 0.124 0.348 0.099 0.597 0.198 0.771 0.322l0.124 0.099v-3.225l-0.075-0.025c-0.224-0.149-0.671-0.223-1.218-0.223zM99.738 11.51c-2.262 0-4.077 0.67-5.345 1.984-1.293 1.315-1.914 3.126-1.914 5.408 0 2.133 0.646 3.87 1.889 5.135 1.243 1.24 2.933 1.885 5.047 1.885 2.213 0 3.978-0.67 5.245-2.009 1.293-1.34 1.914-3.126 1.914-5.333 0-2.183-0.597-3.919-1.815-5.184-1.168-1.265-2.884-1.885-5.022-1.885zM102.323 22.078c-0.597 0.769-1.541 1.141-2.71 1.141s-2.113-0.372-2.784-1.191c-0.671-0.769-0.994-1.885-0.994-3.299 0-1.464 0.348-2.58 0.994-3.374 0.671-0.794 1.591-1.191 2.76-1.191 1.144 0 2.039 0.372 2.685 1.141s0.994 1.885 0.994 3.349c-0.050 1.488-0.323 2.654-0.945 3.423zM113.784 17.513c-1.019-0.422-1.666-0.744-1.964-1.017-0.249-0.248-0.373-0.595-0.373-1.042 0-0.372 0.149-0.744 0.522-0.992s0.796-0.372 1.417-0.372c0.547 0 1.119 0.099 1.666 0.248s1.044 0.372 1.442 0.67l0.124 0.099v-3.026l-0.075-0.025c-0.373-0.149-0.87-0.298-1.467-0.422-0.597-0.099-1.144-0.149-1.591-0.149-1.541 0-2.809 0.372-3.804 1.191-0.994 0.769-1.467 1.811-1.467 3.026 0 0.645 0.099 1.216 0.323 1.687s0.547 0.918 0.994 1.29c0.448 0.347 1.094 0.744 1.989 1.116 0.746 0.322 1.318 0.571 1.666 0.769s0.572 0.422 0.746 0.595c0.124 0.199 0.199 0.447 0.199 0.769 0 0.918-0.696 1.364-2.113 1.364-0.547 0-1.119-0.099-1.79-0.322s-1.293-0.546-1.815-0.918l-0.124-0.099v3.15l0.075 0.025c0.472 0.223 1.044 0.372 1.74 0.546 0.696 0.124 1.318 0.223 1.865 0.223 1.666 0 3.033-0.372 4.002-1.191 0.994-0.794 1.516-1.811 1.516-3.126 0-0.918-0.249-1.736-0.795-2.357-0.721-0.595-1.616-1.215-2.909-1.712zM126.015 11.51c-2.262 0-4.077 0.67-5.345 1.984s-1.914 3.126-1.914 5.408c0 2.133 0.646 3.87 1.889 5.135 1.243 1.24 2.934 1.885 5.046 1.885 2.213 0 3.978-0.67 5.246-2.009 1.294-1.34 1.915-3.126 1.915-5.333 0-2.183-0.597-3.919-1.815-5.184-1.168-1.265-2.884-1.885-5.022-1.885zM128.576 22.078c-0.597 0.769-1.542 1.141-2.71 1.141-1.194 0-2.113-0.372-2.784-1.191-0.672-0.769-0.995-1.885-0.995-3.299 0-1.464 0.348-2.58 0.995-3.374 0.671-0.794 1.59-1.191 2.759-1.191 1.119 0 2.038 0.372 2.684 1.141s0.994 1.885 0.994 3.349c0 1.488-0.324 2.654-0.944 3.423zM150.129 14.462v-2.654h-3.257v-4.068l-0.1 0.025-3.157 0.943v3.101h-4.873v-1.736c0-0.794 0.198-1.414 0.546-1.811s0.87-0.595 1.516-0.595c0.448 0 0.921 0.099 1.442 0.322l0.124 0.074v-2.803l-0.075-0.025c-0.447-0.149-1.044-0.248-1.814-0.248-0.97 0-1.815 0.223-2.586 0.595-0.77 0.422-1.343 0.992-1.765 1.761-0.422 0.744-0.646 1.588-0.646 2.555v1.91h-2.262v2.629h2.262v11.113h3.257v-11.088h4.873v7.070c0 2.902 1.367 4.366 4.102 4.366 0.447 0 0.919-0.074 1.366-0.149 0.473-0.099 0.821-0.223 1.020-0.322l0.025-0.025v-2.654l-0.124 0.099c-0.199 0.124-0.373 0.223-0.672 0.298-0.249 0.074-0.471 0.099-0.646 0.099-0.646 0-1.093-0.149-1.417-0.521-0.298-0.347-0.448-0.918-0.448-1.761v-6.499h3.307z"></path>
<path fill="#f25022" style="fill: var(--color2, #f25022)" d="M0 0h15.239v15.206h-15.239v-15.206z"></path>
<path fill="#7fba00" style="fill: var(--color3, #7fba00)" d="M16.83 0h15.239v15.206h-15.239v-15.206z"></path>
<path fill="#00a4ef" style="fill: var(--color4, #00a4ef)" d="M0 16.794h15.239v15.206h-15.239v-15.206z"></path>
<path fill="#ffb900" style="fill: var(--color5, #ffb900)" d="M16.83 16.794h15.239v15.206h-15.239v-15.206z"></path>
</symbol>
<symbol id="icon-airbnb" viewBox="0 0 103 32">
<path fill="#ff385c" style="fill: var(--color6, #ff385c)" d="M29.485 22.679c-0.161-0.39-0.313-0.8-0.474-1.15l-0.746-1.67-0.030-0.030c-2.218-4.8-4.588-9.68-7.099-14.48l-0.101-0.2c-0.252-0.47-0.504-0.99-0.766-1.47-0.323-0.57-0.635-1.18-1.15-1.76-0.501-0.607-1.132-1.096-1.847-1.432s-1.496-0.51-2.287-0.51c-0.791 0-1.572 0.174-2.287 0.51s-1.346 0.825-1.847 1.432c-0.474 0.58-0.827 1.19-1.15 1.76-0.252 0.52-0.504 1.030-0.766 1.5l-0.101 0.2c-2.471 4.8-4.881 9.68-7.099 14.48l-0.060 0.060c-0.222 0.52-0.484 1.060-0.736 1.64-0.161 0.35-0.323 0.73-0.484 1.15-0.436 1.1-0.575 2.293-0.404 3.462s0.646 2.274 1.379 3.206 1.698 1.658 2.8 2.107c1.102 0.449 2.303 0.606 3.485 0.454 1.133-0.148 2.224-0.522 3.207-1.1 1.311-0.73 2.571-1.79 3.983-3.32 1.412 1.53 2.702 2.59 3.983 3.33 1.232 0.717 2.626 1.112 4.054 1.15 1.653 0.007 3.253-0.58 4.504-1.651s2.069-2.556 2.303-4.179c0.27-1.166 0.179-2.386-0.262-3.5v0.010zM15.005 24.339c-1.735-2.2-2.864-4.22-3.247-5.95-0.159-0.641-0.193-1.306-0.101-1.96 0.070-0.51 0.262-0.96 0.524-1.34 0.605-0.87 1.664-1.41 2.824-1.41 0.551-0.017 1.097 0.102 1.59 0.347s0.917 0.606 1.234 1.053c0.262 0.4 0.454 0.84 0.514 1.35 0.101 0.58 0.060 1.25-0.101 1.96-0.383 1.7-1.513 3.74-3.237 5.95zM27.852 25.819c-0.115 0.824-0.445 1.604-0.958 2.262s-1.191 1.171-1.966 1.488c-0.766 0.32-1.613 0.41-2.44 0.32-0.807-0.1-1.613-0.36-2.44-0.84-1.373-0.841-2.607-1.887-3.66-3.1 2.118-2.6 3.398-4.97 3.882-7.080 0.232-1 0.262-1.9 0.161-2.73-0.126-0.787-0.422-1.537-0.867-2.2-0.509-0.719-1.188-1.303-1.977-1.7s-1.665-0.597-2.551-0.58c-1.866 0-3.529 0.86-4.538 2.27-0.454 0.661-0.747 1.418-0.857 2.21-0.131 0.84-0.101 1.77 0.161 2.73 0.484 2.11 1.795 4.51 3.882 7.1-1.035 1.236-2.273 2.291-3.66 3.12-0.837 0.48-1.634 0.73-2.44 0.83-1.255 0.159-2.522-0.179-3.526-0.941s-1.665-1.887-1.838-3.129c-0.101-0.8-0.030-1.6 0.292-2.5 0.101-0.32 0.252-0.64 0.413-1.020 0.222-0.52 0.484-1.060 0.736-1.6l0.040-0.070c2.178-4.77 4.558-9.64 7.029-14.41l0.101-0.2c0.252-0.48 0.504-0.99 0.766-1.47 0.262-0.51 0.545-1 0.908-1.4 0.314-0.372 0.707-0.671 1.15-0.876s0.927-0.312 1.416-0.312c0.489 0 0.973 0.106 1.416 0.312s0.836 0.504 1.15 0.876c0.353 0.4 0.645 0.89 0.908 1.4 0.252 0.48 0.504 1 0.766 1.47l0.101 0.2c2.46 4.77 4.84 9.64 7.059 14.41l0.030 0.030c0.262 0.52 0.484 1.1 0.736 1.6 0.161 0.39 0.323 0.7 0.424 1.030 0.192 0.9 0.292 1.7 0.192 2.5zM41.889 24.119c-0.76 0.011-1.512-0.148-2.202-0.465s-1.298-0.783-1.781-1.365c-1.085-1.24-1.661-2.839-1.614-4.48-0.017-1.677 0.578-3.303 1.674-4.58 0.507-0.589 1.138-1.061 1.849-1.383s1.484-0.484 2.265-0.477c0.735-0.020 1.463 0.146 2.116 0.482s1.209 0.831 1.615 1.438l0.101-1.57h2.945v12.080h-2.955l-0.101-1.76c-0.419 0.649-0.999 1.18-1.684 1.544s-1.452 0.548-2.229 0.536zM42.655 21.239c0.585 0 1.099-0.16 1.583-0.45 0.444-0.32 0.807-0.74 1.089-1.25 0.252-0.51 0.383-1.12 0.383-1.8 0.039-0.59-0.077-1.181-0.336-1.714s-0.655-0.99-1.146-1.326c-0.472-0.292-1.017-0.446-1.573-0.446s-1.101 0.155-1.573 0.446c-0.444 0.32-0.807 0.74-1.089 1.25-0.267 0.562-0.398 1.179-0.383 1.8-0.039 0.591 0.077 1.181 0.336 1.714s0.655 0.99 1.146 1.326c0.474 0.29 0.988 0.45 1.563 0.45zM53.899 8.459c0 0.35-0.060 0.67-0.222 0.93-0.161 0.25-0.383 0.48-0.676 0.64s-0.605 0.22-0.928 0.22c-0.323 0-0.645-0.060-0.938-0.22-0.277-0.153-0.509-0.373-0.676-0.64-0.156-0.285-0.233-0.606-0.222-0.93 0-0.36 0.071-0.68 0.222-0.93 0.161-0.3 0.393-0.48 0.676-0.64 0.292-0.16 0.605-0.23 0.938-0.23 0.321-0.007 0.638 0.068 0.921 0.219s0.521 0.372 0.692 0.641c0.147 0.292 0.22 0.614 0.212 0.94zM50.47 23.759v-12.060h3.207v12.080h-3.217l0.010-0.020zM62.248 14.859v0.040c-0.151-0.070-0.353-0.1-0.504-0.13-0.202-0.040-0.363-0.040-0.555-0.040-0.898 0-1.573 0.26-2.017 0.8-0.484 0.55-0.706 1.32-0.706 2.31v5.93h-3.217v-12.080h2.955l0.101 1.83c0.323-0.64 0.706-1.12 1.25-1.48 0.542-0.35 1.179-0.524 1.825-0.5 0.232 0 0.454 0.020 0.645 0.060 0.101 0.030 0.161 0.030 0.222 0.060v3.2zM63.539 23.759v-17.020h3.207v6.5c0.454-0.58 0.968-1.030 1.614-1.38 1.022-0.497 2.182-0.638 3.295-0.4s2.112 0.84 2.836 1.71c1.087 1.243 1.663 2.845 1.613 4.49 0.017 1.677-0.578 3.303-1.674 4.58-0.507 0.589-1.138 1.061-1.849 1.383s-1.484 0.484-2.265 0.477c-0.735 0.020-1.463-0.146-2.116-0.482s-1.209-0.831-1.615-1.438l-0.101 1.57-2.945 0.030v-0.020zM69.741 21.239c0.575 0 1.089-0.16 1.573-0.45 0.444-0.32 0.807-0.74 1.089-1.25 0.262-0.51 0.383-1.12 0.383-1.8 0-0.67-0.121-1.28-0.383-1.79-0.265-0.492-0.637-0.919-1.089-1.25-0.472-0.292-1.017-0.446-1.573-0.446s-1.101 0.155-1.573 0.446c-0.454 0.32-0.807 0.74-1.099 1.25-0.267 0.562-0.398 1.179-0.383 1.8-0.039 0.591 0.077 1.181 0.336 1.714s0.655 0.99 1.146 1.326c0.474 0.29 0.988 0.45 1.573 0.45zM77.314 23.769v-12.080h2.955l0.101 1.57c0.371-0.602 0.898-1.094 1.526-1.427s1.333-0.492 2.044-0.463c0.813-0.014 1.612 0.21 2.297 0.644s1.226 1.059 1.555 1.796c0.353 0.76 0.545 1.7 0.545 2.75v7.24h-3.217v-6.82c0-0.84-0.192-1.5-0.575-1.99-0.383-0.48-0.908-0.74-1.573-0.74-0.484 0-0.908 0.1-1.281 0.32-0.353 0.23-0.645 0.52-0.867 0.93-0.224 0.415-0.336 0.88-0.323 1.35v6.92h-3.186zM89.939 23.769v-17.040h3.217v6.5c0.436-0.583 1.002-1.058 1.655-1.386s1.374-0.501 2.106-0.504c0.76-0.011 1.512 0.148 2.202 0.465s1.298 0.784 1.781 1.366c1.080 1.242 1.652 2.841 1.603 4.48 0.018 1.677-0.577 3.304-1.674 4.58-0.507 0.589-1.138 1.061-1.849 1.383s-1.484 0.484-2.265 0.477c-0.735 0.020-1.463-0.146-2.116-0.482s-1.209-0.831-1.615-1.438l-0.091 1.57-2.955 0.030zM96.171 21.239c0.585 0 1.099-0.16 1.573-0.45 0.454-0.32 0.807-0.74 1.099-1.25 0.252-0.51 0.383-1.12 0.383-1.8 0.039-0.59-0.077-1.181-0.336-1.714s-0.655-0.99-1.146-1.326c-0.472-0.292-1.017-0.446-1.573-0.446s-1.101 0.155-1.573 0.446c-0.444 0.32-0.807 0.74-1.089 1.25-0.281 0.557-0.413 1.177-0.383 1.8-0.039 0.591 0.077 1.181 0.336 1.714s0.655 0.99 1.146 1.326c0.474 0.29 0.958 0.45 1.563 0.45z"></path>
</symbol>
<symbol id="icon-google" viewBox="0 0 96 32">
<path fill="#ea4335" style="fill: var(--color7, #ea4335)" d="M40.853 16.41c0 4.442-3.526 7.715-7.853 7.715s-7.853-3.273-7.853-7.715c0-4.473 3.526-7.715 7.853-7.715s7.853 3.242 7.853 7.715zM37.415 16.41c0-2.776-2.044-4.675-4.415-4.675s-4.415 1.899-4.415 4.675c0 2.748 2.044 4.675 4.415 4.675s4.415-1.93 4.415-4.675z"></path>
<path fill="#fbbc05" style="fill: var(--color8, #fbbc05)" d="M57.794 16.41c0 4.442-3.526 7.715-7.853 7.715s-7.853-3.273-7.853-7.715c0-4.47 3.526-7.715 7.853-7.715s7.853 3.242 7.853 7.715zM54.356 16.41c0-2.776-2.044-4.675-4.415-4.675s-4.415 1.899-4.415 4.675c0 2.748 2.044 4.675 4.415 4.675s4.415-1.93 4.415-4.675z"></path>
<path fill="#4285f4" style="fill: var(--color9, #4285f4)" d="M74.029 9.162v13.851c0 5.697-3.409 8.024-7.44 8.024-3.794 0-6.078-2.501-6.939-4.546l2.993-1.228c0.533 1.256 1.839 2.737 3.942 2.737 2.58 0 4.179-1.569 4.179-4.522v-1.11h-0.12c-0.769 0.936-2.252 1.753-4.122 1.753-3.914 0-7.5-3.36-7.5-7.683 0-4.355 3.586-7.743 7.5-7.743 1.867 0 3.349 0.817 4.122 1.725h0.12v-1.256h3.265v-0.004zM71.008 16.438c0-2.717-1.839-4.703-4.179-4.703-2.372 0-4.359 1.986-4.359 4.703 0 2.689 1.987 4.647 4.359 4.647 2.34 0 4.179-1.958 4.179-4.647z"></path>
<path fill="#34a853" style="fill: var(--color10, #34a853)" d="M79.412 1.043v22.609h-3.353v-22.609h3.353z"></path>
<path fill="#ea4335" style="fill: var(--color7, #ea4335)" d="M92.478 18.95l2.668 1.753c-0.861 1.256-2.936 3.419-6.522 3.419-4.447 0-7.768-3.388-7.768-7.715 0-4.588 3.349-7.715 7.384-7.715 4.062 0 6.049 3.186 6.699 4.908l0.356 0.877-10.465 4.271c0.801 1.548 2.047 2.337 3.794 2.337 1.751 0 2.965-0.849 3.854-2.136zM84.265 16.174l6.995-2.863c-0.385-0.964-1.542-1.635-2.905-1.635-1.747 0-4.179 1.52-4.091 4.497z"></path>
<path fill="#4285f4" style="fill: var(--color9, #4285f4)" d="M12.455 14.403v-3.273h11.192c0.109 0.57 0.166 1.245 0.166 1.976 0 2.456-0.681 5.492-2.876 7.656-2.135 2.191-4.864 3.36-8.478 3.36-6.699 0-12.332-5.377-12.332-11.979s5.633-11.979 12.332-11.979c3.706 0 6.346 1.433 8.329 3.301l-2.344 2.31c-1.422-1.315-3.349-2.337-5.989-2.337-4.892 0-8.718 3.885-8.718 8.706s3.826 8.706 8.718 8.706c3.173 0 4.98-1.256 6.138-2.396 0.939-0.925 1.556-2.247 1.8-4.052l-7.938 0.003z"></path>
</symbol>
<symbol id="icon-hubspot" viewBox="0 0 112 32">
<path fill="#33475b" style="fill: var(--color11, #33475b)" d="M12.129 5.297v9.026h-8.224v-9.026h-3.905v21.547h3.905v-8.733h8.224v8.733h3.905v-21.547h-3.905z"></path>
<path fill="#33475b" style="fill: var(--color11, #33475b)" d="M28.53 19.879c0 0.863-0.34 1.692-0.946 2.302s-1.427 0.954-2.284 0.954c-0.857 0-1.678-0.343-2.284-0.954s-0.946-1.439-0.946-2.302v-9.229h-3.704v9.229c0 1.852 0.73 3.628 2.029 4.937s3.061 2.045 4.898 2.045 3.599-0.736 4.898-2.045c1.299-1.309 2.029-3.085 2.029-4.937v-9.229h-3.69v9.229z"></path>
<path fill="#33475b" style="fill: var(--color11, #33475b)" d="M55.971 11.601c0-1.892 1.242-2.491 2.602-2.491 1.096 0 2.544 0.841 3.491 1.861l2.426-2.881c-1.211-1.651-3.667-2.792-5.678-2.792-4.017 0-6.923 2.372-6.923 6.304 0 7.295 8.846 4.981 8.846 9.063 0 1.259-1.213 2.372-2.602 2.372-2.191 0-2.9-1.080-3.907-2.221l-2.692 2.821c1.722 2.131 3.845 3.213 6.39 3.213 3.817 0 6.887-2.401 6.887-6.153 0-8.099-8.846-5.582-8.846-9.094z"></path>
<path fill="#33475b" style="fill: var(--color11, #33475b)" d="M110.697 23.402c-2.189 0-2.81-0.955-2.81-2.416v-6.469h3.401v-3.278h-3.401v-4.325l-3.755 1.699v13.178c0 3.371 2.307 5.069 5.471 5.069 0.496 0.009 0.992-0.031 1.481-0.12l0.916-3.4c-0.413 0.029-0.888 0.058-1.303 0.058z"></path>
<path fill="#33475b" style="fill: var(--color11, #33475b)" d="M42.627 10.758c-1.835 0-3.115 0.536-4.352 1.761v-7.092h-3.709v13.145c0 4.921 3.53 8.292 7.495 8.292 4.4 0 8.27-3.43 8.27-8.051 0-4.562-3.562-8.053-7.704-8.053v-0.002zM42.605 23.101c-0.832 0-1.646-0.249-2.338-0.715s-1.232-1.129-1.55-1.904c-0.319-0.775-0.402-1.628-0.239-2.451s0.563-1.579 1.152-2.172c0.589-0.593 1.339-0.997 2.155-1.161s1.663-0.080 2.432 0.241 1.426 0.865 1.889 1.563c0.463 0.698 0.709 1.518 0.709 2.357 0 1.125-0.443 2.204-1.233 3s-1.86 1.243-2.976 1.243z"></path>
<path fill="#33475b" style="fill: var(--color11, #33475b)" d="M82.906 18.616c0-4.628-3.863-8.051-8.27-8.051-3.966 0-7.495 3.371-7.495 8.292v13.153h3.709v-7.102c1.236 1.223 2.518 1.761 4.35 1.761 4.142 0 7.704-3.488 7.704-8.053h0.002zM79.393 18.569c0 0.839-0.247 1.659-0.709 2.357s-1.12 1.241-1.889 1.563-1.615 0.405-2.432 0.241c-0.816-0.164-1.566-0.568-2.155-1.161s-0.989-1.349-1.152-2.172-0.079-1.676 0.239-2.451c0.319-0.775 0.858-1.438 1.55-1.904s1.506-0.715 2.338-0.715c1.116 0 2.187 0.447 2.976 1.243s1.233 1.875 1.233 3z"></path>
<path fill="#ff7a59" style="fill: var(--color12, #ff7a59)" d="M94.889 10.384v-3.756c0.493-0.232 0.91-0.6 1.203-1.062s0.45-0.997 0.452-1.545v-0.087c0-0.767-0.302-1.503-0.841-2.045s-1.268-0.847-2.029-0.847h-0.086c-0.761 0-1.491 0.305-2.029 0.847s-0.841 1.278-0.841 2.045v0.087c0.003 0.548 0.159 1.084 0.452 1.545s0.71 0.83 1.203 1.062v3.756c-1.416 0.218-2.749 0.81-3.865 1.714l-10.22-8.024c0.072-0.265 0.111-0.537 0.115-0.812 0.001-0.645-0.187-1.275-0.542-1.812s-0.859-0.955-1.449-1.203c-0.591-0.248-1.241-0.313-1.868-0.188s-1.204 0.434-1.657 0.889c-0.453 0.455-0.762 1.035-0.887 1.667s-0.063 1.287 0.181 1.883c0.244 0.596 0.658 1.105 1.189 1.464s1.156 0.551 1.796 0.551c0.559-0.003 1.108-0.153 1.592-0.436l10.065 7.893c-0.904 1.377-1.376 2.996-1.354 4.647s0.537 3.257 1.478 4.609l-3.061 3.085c-0.247-0.080-0.505-0.122-0.765-0.125-0.525 0-1.038 0.158-1.475 0.452s-0.776 0.712-0.977 1.201c-0.201 0.489-0.253 1.027-0.151 1.546s0.355 0.996 0.727 1.37c0.371 0.374 0.844 0.629 1.359 0.732s1.049 0.050 1.534-0.152c0.485-0.202 0.9-0.545 1.192-0.985s0.448-0.957 0.448-1.486c-0.003-0.262-0.045-0.522-0.124-0.771l3.028-3.053c0.987 0.766 2.136 1.294 3.357 1.544s2.483 0.214 3.688-0.104c1.206-0.318 2.323-0.909 3.267-1.73s1.689-1.847 2.178-3.002c0.489-1.155 0.709-2.408 0.644-3.662s-0.415-2.477-1.021-3.574c-0.606-1.097-1.454-2.040-2.478-2.756s-2.196-1.186-3.428-1.375zM93.634 22.737c-0.828-0.001-1.638-0.249-2.326-0.713s-1.225-1.124-1.541-1.896c-0.317-0.772-0.399-1.62-0.237-2.439s0.561-1.571 1.147-2.161 1.332-0.992 2.145-1.155c0.813-0.163 1.655-0.079 2.42 0.24s1.42 0.86 1.88 1.555c0.46 0.694 0.706 1.51 0.707 2.345 0 1.12-0.441 2.194-1.227 2.986s-1.851 1.237-2.963 1.237z"></path>
</symbol>
<symbol id="icon-magnifying-glass" viewBox="0 0 32 32">
<path fill="currentColor" d="M30.938 29.131l-7.45-7.45c1.819-2.219 2.906-5.050 2.906-8.144 0-7.094-5.756-12.85-12.85-12.85-7.1 0-12.856 5.756-12.856 12.856s5.756 12.856 12.856 12.856c3.088 0 5.925-1.087 8.144-2.906l7.444 7.444c0.5 0.5 1.306 0.5 1.806 0s0.5-1.306 0-1.806zM3.237 13.544c0-5.688 4.612-10.3 10.3-10.3s10.3 4.612 10.3 10.3-4.613 10.3-10.3 10.3c-5.688 0-10.3-4.613-10.3-10.3z"></path>
</symbol>
<symbol id="icon-User-Arrows" viewBox="0 0 32 32">
<path fill="#0388a9" style="fill: var(--color1, #0388a9)" d="M8 22c-0.923 0-1.825-0.274-2.593-0.787s-1.366-1.242-1.719-2.094c-0.353-0.853-0.446-1.791-0.266-2.696s0.625-1.737 1.277-2.389c0.653-0.653 1.484-1.097 2.389-1.277s1.844-0.088 2.696 0.265c0.853 0.353 1.582 0.951 2.094 1.719s0.786 1.67 0.786 2.593c-0.001 1.237-0.494 2.423-1.368 3.298s-2.061 1.367-3.298 1.368z"></path>
<path fill="#c3e8f1" style="fill: var(--color2, #c3e8f1)" d="M11.52 20.362c-0.432 0.513-0.971 0.925-1.579 1.208s-1.271 0.43-1.941 0.43c-0.671 0-1.333-0.147-1.941-0.43s-1.147-0.695-1.579-1.208c-0.96 0.595-1.753 1.425-2.303 2.411s-0.841 2.097-0.843 3.226c0 0.354 0.14 0.693 0.391 0.943s0.589 0.391 0.943 0.391h10.667c0.354 0 0.693-0.141 0.943-0.391s0.39-0.589 0.39-0.943c-0.002-1.13-0.293-2.24-0.843-3.226s-1.343-1.816-2.303-2.411zM24 22c-0.923 0-1.825-0.274-2.593-0.787s-1.366-1.242-1.719-2.094c-0.353-0.853-0.446-1.791-0.266-2.696s0.625-1.737 1.277-2.389c0.653-0.653 1.484-1.097 2.389-1.277s1.844-0.088 2.696 0.265c0.853 0.353 1.582 0.951 2.094 1.719s0.786 1.67 0.786 2.593c-0.001 1.237-0.494 2.423-1.368 3.298s-2.061 1.367-3.298 1.368z"></path>
<path fill="#027794" style="fill: var(--color3, #027794)" d="M27.52 20.362c-0.432 0.513-0.971 0.925-1.579 1.208s-1.271 0.43-1.941 0.43c-0.671 0-1.333-0.147-1.941-0.43s-1.147-0.695-1.579-1.208c-0.96 0.595-1.753 1.425-2.303 2.411s-0.841 2.097-0.843 3.226c0 0.354 0.14 0.693 0.39 0.943s0.589 0.391 0.943 0.391h10.667c0.354 0 0.693-0.141 0.943-0.391s0.39-0.589 0.39-0.943c-0.003-1.13-0.293-2.24-0.843-3.226s-1.343-1.816-2.303-2.411z"></path>
<path fill="#027794" style="fill: var(--color3, #027794)" d="M22.943 7.724l-2.667-2.667c-0.251-0.246-0.589-0.384-0.94-0.382s-0.688 0.142-0.937 0.39c-0.248 0.249-0.389 0.585-0.39 0.937s0.136 0.689 0.382 0.94l0.391 0.391h-5.563l0.391-0.391c0.247-0.251 0.386-0.589 0.385-0.941s-0.142-0.689-0.39-0.939c-0.249-0.249-0.586-0.389-0.939-0.39s-0.69 0.137-0.941 0.385l-2.667 2.667c-0.124 0.124-0.222 0.271-0.289 0.432s-0.102 0.335-0.102 0.51c0 0.175 0.034 0.349 0.102 0.51s0.165 0.309 0.289 0.433l2.667 2.667c0.251 0.247 0.589 0.386 0.941 0.385s0.689-0.142 0.938-0.39 0.389-0.586 0.39-0.939c0.001-0.352-0.137-0.69-0.385-0.941l-0.391-0.391h5.562l-0.391 0.391c-0.25 0.25-0.39 0.589-0.39 0.943s0.14 0.693 0.39 0.943c0.25 0.25 0.589 0.39 0.943 0.39s0.693-0.14 0.943-0.39l2.667-2.667c0.124-0.124 0.222-0.271 0.289-0.433s0.102-0.335 0.102-0.51c0-0.175-0.035-0.348-0.102-0.51s-0.165-0.309-0.289-0.432z"></path>
</symbol>
<symbol id="icon-Rocket" viewBox="0 0 32 32">
<path fill="#027794" style="fill: var(--color3, #027794)" d="M23.649 19.496l-3.235 2.974c-1.663 1.45-3.617 2.527-5.731 3.16l0.858 4.004c0.044 0.204 0.135 0.396 0.267 0.558s0.299 0.292 0.49 0.378c0.191 0.086 0.399 0.126 0.608 0.116s0.413-0.068 0.595-0.17l5.207-2.937c0.733-0.445 1.305-1.112 1.635-1.904s0.399-1.668 0.198-2.501l-0.892-3.679zM9.688 11.701l2.785-3.306-3.473-0.838c-0.844-0.294-1.767-0.273-2.597 0.059s-1.512 0.954-1.919 1.751l-2.934 5.2c-0.103 0.182-0.161 0.386-0.171 0.595s0.030 0.417 0.116 0.608c0.086 0.191 0.215 0.358 0.378 0.49s0.354 0.223 0.559 0.266l4.097 0.878c0.679-2.085 1.751-4.021 3.158-5.702zM22.312 11.755c0.396 0 0.782-0.117 1.111-0.337s0.585-0.532 0.737-0.898c0.151-0.365 0.191-0.768 0.114-1.156s-0.268-0.744-0.547-1.024c-0.28-0.28-0.636-0.47-1.024-0.547s-0.79-0.038-1.156 0.114c-0.366 0.151-0.678 0.408-0.898 0.737s-0.337 0.716-0.337 1.111c0 0.53 0.211 1.039 0.586 1.414s0.884 0.586 1.414 0.586z"></path>
<path fill="#c3e8f1" style="fill: var(--color2, #c3e8f1)" d="M30.135 2.749c-0.060-0.228-0.18-0.437-0.347-0.604s-0.375-0.287-0.604-0.347c-2.735-0.711-5.616-0.635-8.309 0.22s-5.091 2.453-6.916 4.611l-4.271 5.072c-2.134 2.545-3.488 5.652-3.898 8.948-0.026 0.203-0.006 0.408 0.060 0.602s0.175 0.369 0.32 0.513l4.133 4.133c0.124 0.124 0.271 0.222 0.432 0.289s0.335 0.102 0.51 0.102c0.039 0 0.077-0.002 0.116-0.005 3.346-0.276 6.518-1.612 9.053-3.813l4.884-4.491c2.165-1.82 3.77-4.218 4.626-6.914s0.929-5.58 0.211-8.316zM22.312 11.755c-0.396 0-0.782-0.117-1.111-0.337s-0.585-0.532-0.737-0.898c-0.151-0.365-0.191-0.768-0.114-1.156s0.268-0.744 0.547-1.024c0.28-0.28 0.636-0.47 1.024-0.547s0.79-0.038 1.156 0.114c0.366 0.151 0.678 0.408 0.898 0.737s0.337 0.716 0.337 1.111c-0 0.53-0.211 1.039-0.586 1.414s-0.884 0.586-1.414 0.586z"></path>
</symbol>
<symbol id="icon-Bag" viewBox="0 0 32 32">
<path fill="#c3e8f1" style="fill: var(--color2, #c3e8f1)" d="M25.333 8h-18.667c-2.209 0-4 1.791-4 4v3.628l9.117 3.039h8.434l9.117-3.039v-3.628c0-2.209-1.791-4-4-4z"></path>
<path fill="#027794" style="fill: var(--color3, #027794)" d="M13.333 8v-1.333h5.333v1.333h2.667v-1.333c-0.002-1.472-1.195-2.665-2.667-2.667h-5.333c-1.472 0.002-2.665 1.195-2.667 2.667v1.333h2.667zM11.783 18.667l-9.117-3.039v8.372c0.002 2.208 1.792 3.998 4 4h18.667c2.208-0.002 3.998-1.792 4-4v-8.372l-9.117 3.039h-8.434z"></path>
</symbol>
<symbol id="icon-Circle-Layer" viewBox="0 0 32 32">
<path fill="#c3e8f1" style="fill: var(--color2, #c3e8f1)" d="M20 2.667c-4.503 0.002-8.362 3.22-9.174 7.649 3.876-2.121 8.737-0.698 10.858 3.178 1.309 2.393 1.309 5.288 0 7.681 5.068-0.929 8.424-5.79 7.496-10.858-0.812-4.432-4.675-7.65-9.181-7.649z"></path>
<path fill="#027794" style="fill: var(--color3, #027794)" d="M9.333 29.333c3.682 0 6.667-2.985 6.667-6.667s-2.985-6.667-6.667-6.667c-3.682 0-6.667 2.985-6.667 6.667s2.985 6.667 6.667 6.667z"></path>
<path fill="#52a0b4" style="fill: var(--color4, #52a0b4)" d="M14.667 9.333c-4.111 0-7.553 3.117-7.96 7.208 3.381-1.453 7.3 0.111 8.752 3.492 0.721 1.679 0.721 3.581 0 5.261 4.396-0.437 7.606-4.355 7.169-8.752-0.407-4.092-3.849-7.208-7.961-7.208z"></path>
</symbol>
<symbol id="icon-Call" viewBox="0 0 29 32">
<path fill="#f9f8f9" style="fill: var(--color1, #f9f8f9)" d="M15.376 16.63c5.319 5.317 6.525-0.834 9.912 2.55 3.265 3.264 5.141 3.918 1.005 8.053-0.518 0.416-3.81 5.426-15.38-6.14-11.571-11.568-6.564-14.863-6.147-15.381 4.147-4.147 4.789-2.259 8.054 1.005 3.387 3.386-2.762 4.596 2.556 9.913z"></path>
</symbol>
<symbol id="icon-triangle-down" viewBox="0 0 20 20">
<path d="M5 6h10l-5 9-5-9z"></path>
</symbol>
<symbol id="icon-youtube" viewBox="0 0 31 32">
<path fill="#f9f8f9" style="fill: var(--color1, #f9f8f9)" opacity="0.1" d="M0 15.854c0-8.483 6.877-15.36 15.36-15.36s15.36 6.877 15.36 15.36c0 8.483-6.877 15.36-15.36 15.36s-15.36-6.877-15.36-15.36z"></path>
<path fill="#fff" style="fill: var(--color2, #fff)" d="M21.761 10.573c0.705 0.193 1.26 0.763 1.449 1.487 0.342 1.312 0.342 4.049 0.342 4.049s0 2.737-0.342 4.049c-0.188 0.724-0.744 1.294-1.449 1.487-1.278 0.352-6.401 0.352-6.401 0.352s-5.123 0-6.401-0.352c-0.705-0.194-1.26-0.764-1.449-1.487-0.342-1.312-0.342-4.049-0.342-4.049s0-2.737 0.342-4.049c0.188-0.724 0.744-1.294 1.449-1.487 1.278-0.352 6.401-0.352 6.401-0.352s5.123 0 6.401 0.352zM13.824 13.806v5.12l4.096-2.56-4.096-2.56z"></path>
</symbol>
<symbol id="icon-twitter" viewBox="0 0 31 32">
<path fill="#f9f8f9" style="fill: var(--color1, #f9f8f9)" opacity="0.1" d="M0 15.854c0-8.483 6.877-15.36 15.36-15.36s15.36 6.877 15.36 15.36c0 8.483-6.877 15.36-15.36 15.36s-15.36-6.877-15.36-15.36z"></path>
<path fill="#fff" style="fill: var(--color2, #fff)" d="M14.9 12.978l0.032 0.532-0.537-0.065c-1.955-0.249-3.664-1.095-5.114-2.516l-0.709-0.705-0.183 0.521c-0.387 1.161-0.14 2.386 0.666 3.211 0.43 0.456 0.333 0.521-0.408 0.249-0.258-0.087-0.483-0.152-0.505-0.119-0.075 0.076 0.183 1.063 0.387 1.453 0.279 0.542 0.849 1.074 1.472 1.388l0.526 0.249-0.623 0.011c-0.602 0-0.623 0.011-0.559 0.239 0.215 0.705 1.064 1.453 2.009 1.779l0.666 0.228-0.58 0.347c-0.86 0.499-1.869 0.781-2.879 0.803-0.483 0.011-0.881 0.054-0.881 0.087 0 0.109 1.311 0.716 2.074 0.954 2.288 0.705 5.007 0.401 7.048-0.803 1.45-0.857 2.901-2.56 3.578-4.209 0.365-0.879 0.731-2.484 0.731-3.254 0-0.499 0.032-0.564 0.634-1.161 0.355-0.347 0.688-0.727 0.752-0.835 0.107-0.206 0.097-0.206-0.451-0.022-0.913 0.325-1.042 0.282-0.591-0.206 0.333-0.347 0.731-0.976 0.731-1.161 0-0.033-0.161 0.022-0.344 0.119-0.193 0.108-0.623 0.271-0.946 0.369l-0.58 0.184-0.526-0.358c-0.29-0.195-0.698-0.412-0.913-0.477-0.548-0.152-1.386-0.13-1.88 0.043-1.343 0.488-2.192 1.746-2.095 3.124z"></path>
</symbol>
<symbol id="icon-basketball" viewBox="0 0 31 32">
<path fill="#f9f8f9" style="fill: var(--color1, #f9f8f9)" opacity="0.1" d="M0 15.854c0-8.483 6.877-15.36 15.36-15.36s15.36 6.877 15.36 15.36c0 8.483-6.877 15.36-15.36 15.36s-15.36-6.877-15.36-15.36z"></path>
<path fill="#fff" style="fill: var(--color2, #fff)" d="M23.552 15.843c0 0.554-0.056 1.107-0.167 1.646-0.108 0.526-0.268 1.043-0.478 1.537-0.205 0.485-0.459 0.953-0.756 1.389-0.292 0.433-0.629 0.84-0.999 1.211-0.371 0.369-0.779 0.705-1.212 0.999-0.438 0.295-0.906 0.548-1.392 0.754-0.495 0.209-1.013 0.368-1.539 0.476-0.54 0.111-1.095 0.168-1.65 0.168s-1.111-0.057-1.65-0.168c-0.527-0.108-1.045-0.268-1.539-0.476-0.486-0.206-0.954-0.459-1.392-0.754-0.433-0.294-0.841-0.63-1.211-0.999-0.37-0.371-0.707-0.777-1-1.211-0.295-0.436-0.55-0.904-0.755-1.389-0.21-0.494-0.37-1.011-0.478-1.537-0.11-0.539-0.166-1.092-0.166-1.646s0.056-1.109 0.166-1.647c0.108-0.526 0.269-1.044 0.478-1.537 0.206-0.486 0.46-0.954 0.755-1.39 0.293-0.434 0.63-0.84 1-1.211 0.37-0.369 0.778-0.704 1.211-0.997 0.438-0.296 0.906-0.55 1.392-0.756 0.494-0.209 1.012-0.369 1.539-0.476 0.539-0.11 1.094-0.166 1.65-0.166s1.11 0.056 1.65 0.166c0.526 0.107 1.044 0.267 1.539 0.476 0.486 0.206 0.954 0.46 1.392 0.756 0.433 0.293 0.841 0.628 1.212 0.997 0.37 0.371 0.707 0.777 0.999 1.211 0.297 0.436 0.551 0.904 0.756 1.39 0.21 0.493 0.37 1.011 0.478 1.537 0.111 0.538 0.167 1.092 0.167 1.647zM12.375 9.524c-1.951 0.92-3.407 2.715-3.861 4.878 0.184 0.002 3.1 0.038 6.459-0.853-1.211-2.148-2.504-3.901-2.598-4.026zM15.552 14.625c-3.602 1.077-7.059 0.999-7.183 0.995-0.002 0.075-0.006 0.148-0.006 0.223 0 1.795 0.678 3.431 1.793 4.668-0.002-0.004 1.912-3.395 5.688-4.614 0.091-0.030 0.184-0.058 0.276-0.084-0.175-0.397-0.367-0.795-0.568-1.187zM19.98 10.599c-1.232-1.085-2.849-1.742-4.62-1.742-0.568 0-1.12 0.069-1.649 0.196 0.105 0.141 1.419 1.881 2.615 4.075 2.64-0.988 3.636-2.503 3.653-2.528zM16.596 16.97c-0.016 0.005-0.031 0.010-0.046 0.015-4.128 1.437-5.476 4.333-5.49 4.364 1.188 0.922 2.677 1.479 4.3 1.479 0.969 0 1.892-0.197 2.731-0.554-0.104-0.61-0.51-2.75-1.494-5.305zM19.269 21.636c1.571-1.059 2.686-2.739 2.998-4.686-0.144-0.046-2.101-0.665-4.359-0.304 0.918 2.518 1.291 4.569 1.362 4.99zM16.865 14.169c0.162 0.333 0.32 0.672 0.465 1.013 0.052 0.122 0.102 0.242 0.151 0.362 2.403-0.302 4.771 0.206 4.872 0.227-0.016-1.656-0.609-3.176-1.591-4.366-0.013 0.019-1.135 1.638-3.897 2.764z"></path>
</symbol>
<symbol id="icon-instagram" viewBox="0 0 31 32">
<path fill="#f9f8f9" style="fill: var(--color1, #f9f8f9)" opacity="0.1" d="M0 15.854c0-8.483 6.877-15.36 15.36-15.36s15.36 6.877 15.36 15.36c0 8.483-6.877 15.36-15.36 15.36s-15.36-6.877-15.36-15.36z"></path>
<path fill="#fff" style="fill: var(--color2, #fff)" d="M15.361 7.662c-2.225 0-2.504 0.010-3.378 0.050-0.872 0.040-1.467 0.178-1.988 0.381-0.539 0.209-0.996 0.489-1.451 0.945s-0.736 0.912-0.946 1.451c-0.203 0.521-0.341 1.117-0.381 1.988-0.039 0.874-0.049 1.153-0.049 3.378s0.010 2.503 0.050 3.377c0.040 0.872 0.178 1.467 0.381 1.988 0.209 0.539 0.489 0.996 0.945 1.451s0.912 0.736 1.451 0.946c0.521 0.203 1.117 0.341 1.989 0.381 0.874 0.040 1.153 0.050 3.378 0.050s2.503-0.010 3.377-0.050c0.872-0.040 1.468-0.178 1.989-0.381 0.539-0.209 0.995-0.49 1.45-0.946s0.736-0.912 0.946-1.451c0.201-0.521 0.34-1.117 0.381-1.988 0.039-0.874 0.050-1.152 0.050-3.377s-0.010-2.504-0.050-3.378c-0.041-0.872-0.179-1.467-0.381-1.988-0.21-0.539-0.49-0.996-0.946-1.451s-0.911-0.736-1.451-0.945c-0.522-0.203-1.118-0.341-1.99-0.381-0.874-0.040-1.152-0.050-3.378-0.050h0.003zM14.626 9.138c0.218-0 0.461 0 0.735 0 2.187 0 2.447 0.008 3.31 0.047 0.799 0.037 1.232 0.17 1.521 0.282 0.382 0.148 0.655 0.326 0.941 0.613s0.464 0.56 0.613 0.942c0.112 0.288 0.246 0.722 0.282 1.521 0.039 0.864 0.048 1.123 0.048 3.309s-0.008 2.446-0.048 3.309c-0.036 0.799-0.17 1.232-0.282 1.521-0.148 0.382-0.326 0.654-0.613 0.941s-0.559 0.464-0.941 0.613c-0.288 0.113-0.722 0.246-1.521 0.282-0.864 0.039-1.123 0.048-3.31 0.048s-2.447-0.008-3.31-0.048c-0.799-0.037-1.232-0.17-1.521-0.282-0.382-0.148-0.655-0.326-0.942-0.613s-0.464-0.559-0.613-0.942c-0.112-0.288-0.246-0.722-0.282-1.521-0.039-0.863-0.047-1.123-0.047-3.311s0.008-2.446 0.047-3.309c0.037-0.799 0.17-1.232 0.282-1.521 0.148-0.382 0.326-0.655 0.613-0.942s0.56-0.464 0.942-0.613c0.289-0.113 0.722-0.246 1.521-0.282 0.756-0.034 1.049-0.044 2.575-0.046v0.002zM19.734 10.498c-0.543 0-0.983 0.44-0.983 0.983s0.44 0.983 0.983 0.983c0.543 0 0.983-0.44 0.983-0.983s-0.44-0.983-0.983-0.983zM15.361 11.647c-2.323 0-4.207 1.884-4.207 4.207s1.884 4.206 4.207 4.206c2.323 0 4.206-1.883 4.206-4.206s-1.883-4.207-4.206-4.207zM15.361 13.123c1.508 0 2.731 1.223 2.731 2.731s-1.223 2.731-2.731 2.731c-1.508 0-2.731-1.223-2.731-2.731s1.223-2.731 2.731-2.731z"></path>
</symbol>
<symbol id="icon-menu-button" viewBox="0 0 32 32">
<path d="M2 6h28v6h-28zM2 14h28v6h-28zM2 22h28v6h-28z"></path>
</symbol>
</defs>
</svg>
